<?xml version="1.0" encoding="UTF-8"?>
<svg version="1.1" xmlns="http://www.w3.org/2000/svg" width="308" height="308">
<path d="M0 0 C3.21954645 2.53453657 4.70432435 4.11297305 6 8 C6 11.96 6 15.92 6 20 C46.095 19.505 46.095 19.505 87 19 C87.33 14.38 87.66 9.76 88 5 C91.06840539 1.05490736 92.67631046 0.20900361 97.5625 -0.5625 C101.52374737 0.08570411 103.18799374 1.18799374 106 4 C107.50156874 7.00313748 107.09281204 9.79067522 107.0625 13.125 C107.05347656 14.40632812 107.04445312 15.68765625 107.03515625 17.0078125 C107.01775391 18.48894531 107.01775391 18.48894531 107 20 C107.93271729 19.97905273 108.86543457 19.95810547 109.82641602 19.93652344 C113.31349726 19.86802604 116.79985541 19.81804554 120.28735352 19.78027344 C121.79170062 19.76025637 123.29597089 19.73303373 124.80004883 19.69824219 C126.97236162 19.64928055 129.14363906 19.62693347 131.31640625 19.609375 C132.62037354 19.58842773 133.92434082 19.56748047 135.26782227 19.54589844 C141.02803632 20.24675525 144.45918385 22.06088231 148.07148838 26.60696888 C150.27210418 30.4787412 150.56296635 33.40942971 150.50793457 37.73570251 C150.51417453 38.49543084 150.5204145 39.25515917 150.52684355 40.03790957 C150.54274853 42.57368813 150.53017958 45.10850208 150.51757812 47.64428711 C150.52300041 49.4663092 150.53012368 51.2883269 150.53881836 53.1103363 C150.5570432 58.05255164 150.54998727 62.99443272 150.53730202 67.93665385 C150.5271685 73.11171409 150.53656882 78.28674588 150.54284668 83.46180725 C150.5501227 92.15321993 150.54053722 100.84449664 150.52148438 109.53588867 C150.4997226 119.57888378 150.50676218 129.62155397 150.52879 139.66454118 C150.54695342 148.29148001 150.54949749 156.91832112 150.53903532 165.54527289 C150.53280471 170.69584925 150.53195278 175.84627301 150.54518127 180.99683952 C150.55675258 185.84049337 150.54869055 190.68372924 150.52560425 195.52733803 C150.52032372 197.30304648 150.52181971 199.07879023 150.53065491 200.85448456 C150.54162046 203.28256611 150.52783585 205.70931662 150.50793457 208.13731384 C150.51685746 208.83654762 150.52578034 209.53578139 150.53497362 210.25620407 C150.449546 215.6463047 148.98041771 218.65838997 146 223 C141.10416915 227.05404665 136.50464169 227.56844662 130.31079102 227.45410156 C129.47096176 227.45468567 128.63113251 227.45526978 127.76585388 227.45587158 C125.0114394 227.45310216 122.25812985 227.42206511 119.50390625 227.390625 C117.58577567 227.38315853 115.66763742 227.37746752 113.74949646 227.37347412 C108.71711931 227.35824977 103.68520877 227.31899559 98.65301514 227.2746582 C93.5115795 227.23363638 88.37006798 227.21544837 83.22851562 227.1953125 C73.15213948 227.15249818 63.07610864 227.08428571 53 227 C53.08732121 229.24551004 53.19550318 231.49021545 53.3125 233.734375 C53.37050781 234.98444336 53.42851562 236.23451172 53.48828125 237.52246094 C54.22034308 242.49740784 56.3891533 244.75844444 60 248 C61.12135332 250.24270664 61.22995636 251.63131316 61.3125 254.125 C61.36857422 255.21167969 61.36857422 255.21167969 61.42578125 256.3203125 C60.99242541 259.04767125 60.29677942 260.28685371 58.91357422 262.61938477 C56.51065204 267.34179315 56.92089061 270.69908228 57.95703125 275.76953125 C58.09823898 276.57235031 58.23944672 277.37516937 58.38493347 278.20231628 C58.83633456 280.7442152 59.32262898 283.27776119 59.8125 285.8125 C60.28498159 288.36582417 60.75002965 290.92026379 61.20793152 293.47624207 C61.49398693 295.06067894 61.78963536 296.64342071 62.09590149 298.22407532 C62.72713191 301.61337795 63.10887891 303.67336326 62 307 C57.07511595 308.94235578 51.13793142 308.18444631 45.9375 308.1875 C44.83599609 308.19974609 43.73449219 308.21199219 42.59960938 308.22460938 C41.01696289 308.22750977 41.01696289 308.22750977 39.40234375 308.23046875 C38.43804443 308.23457764 37.47374512 308.23868652 36.48022461 308.24291992 C34 308 34 308 31 306 C30.1042217 297.73669684 32.4045049 289.41317543 33.93920898 281.32788086 C34.30184033 279.40362208 34.65301644 277.4772157 35.00390625 275.55078125 C35.21861572 274.41294189 35.4333252 273.27510254 35.65454102 272.1027832 C36.14414683 267.70532721 35.53950735 264.99269353 33.4375 261.125 C31.7203672 257.3921026 31.56365026 255.07259758 32 251 C33.44541077 247.42088762 34.9223378 244.4086052 38 242 C38.66 242 39.32 242 40 242 C40 237.05 40 232.1 40 227 C38.42265579 227.00999275 38.42265579 227.00999275 36.81344604 227.02018738 C26.89666674 227.08103952 16.97992538 227.12599238 7.06300163 227.15543652 C1.9647734 227.171083 -3.13330392 227.19230283 -8.23144531 227.22631836 C-13.15273392 227.25894789 -18.07387751 227.27686067 -22.99526596 227.28463173 C-24.8715226 227.29016877 -26.74777143 227.30098128 -28.62396622 227.31719017 C-31.25485551 227.33901221 -33.88514784 227.34196493 -36.51611328 227.34057617 C-37.2893544 227.351362 -38.06259552 227.36214783 -38.85926819 227.3732605 C-44.36177677 227.34189375 -48.56335845 226.27458463 -52.64453125 222.46484375 C-56.4166523 217.53207007 -57.14962388 214.87714982 -57.15390015 208.79000854 C-57.1582824 208.03848704 -57.16266465 207.28696553 -57.1671797 206.51267064 C-57.18059121 203.9809381 -57.18675188 201.4492404 -57.19287109 198.91748047 C-57.20077035 197.10752708 -57.20903919 195.29757526 -57.21765137 193.48762512 C-57.24389678 187.53082794 -57.25918374 181.57402364 -57.2734375 175.6171875 C-57.27879657 173.56748576 -57.28417407 171.51778407 -57.28956985 169.46808243 C-57.31120426 160.94113461 -57.32994043 152.41418871 -57.34119225 143.88722038 C-57.35742648 131.66418186 -57.39058519 119.4414615 -57.44759309 107.21854293 C-57.48630027 98.62651657 -57.505826 90.03457526 -57.51111281 81.44246399 C-57.51476583 76.31015004 -57.52678158 71.17817524 -57.55921555 66.04595566 C-57.5893089 61.2146609 -57.59560343 56.38391024 -57.58383179 51.55254173 C-57.58361114 49.78206669 -57.59190859 48.01156632 -57.60948563 46.24117851 C-57.76099302 30.09843043 -57.76099302 30.09843043 -53.35042191 24.31567287 C-48.86880015 19.94937213 -44.44016829 19.63471798 -38.4140625 19.70703125 C-37.71227875 19.71127609 -37.010495 19.71552094 -36.28744507 19.71989441 C-34.0662244 19.73656401 -31.84594212 19.77419128 -29.625 19.8125 C-28.11069027 19.82756212 -26.59636619 19.84124784 -25.08203125 19.85351562 C-21.38772068 19.88642817 -17.69395207 19.93812741 -14 20 C-14.04640625 19.04738281 -14.0928125 18.09476563 -14.140625 17.11328125 C-14.17671875 15.85902344 -14.2128125 14.60476562 -14.25 13.3125 C-14.29640625 12.07113281 -14.3428125 10.82976563 -14.390625 9.55078125 C-13.93733018 5.4303313 -12.89748679 3.89212108 -10 1 C-6.78070427 -0.60964787 -3.48112288 -0.60686242 0 0 Z " fill="#43BCEB" transform="translate(102,0)"/>
<path d="M0 0 C4.56875163 3.72959317 8.52723989 7.55743548 12.32421875 12.0703125 C14.12722121 14.14649716 16.0369993 16.07548951 18 18 C17.20335937 18.85722656 16.40671875 19.71445313 15.5859375 20.59765625 C8.96162144 27.69816148 8.96162144 27.69816148 2.5625 35 C0 38 0 38 -2.24609375 40.2421875 C-5.45933352 43.45998506 -8.53890818 46.78596382 -11.625 50.125 C-15.92944514 54.76934417 -20.28724027 59.32047919 -24.8125 63.75 C-29.10181498 67.98304117 -32.85865543 72.45185404 -36.60546875 77.1640625 C-39.77753854 80.92086946 -43.22007019 84.34857343 -46.75170898 87.76538086 C-50.09298686 91.01223743 -53.07375723 94.38491541 -56 98 C-61.80505145 93.13178683 -67.08487031 88.0406777 -72.125 82.375 C-76.38586248 77.60283402 -80.87404838 73.10638792 -85.421875 68.609375 C-88.24832164 65.7486684 -90.89205484 62.78084876 -93.49609375 59.71875 C-94.91132592 58.1013418 -96.38657173 56.61112625 -97.9375 55.125 C-100 53 -100 53 -100 51 C-98.38135216 49.28665978 -96.7034346 47.6290691 -95 46 C-94.0325424 45.0377772 -93.06771798 44.07290007 -92.10546875 43.10546875 C-89.40364583 40.40364583 -86.70182292 37.70182292 -84 35 C-77.30206438 38.1227848 -72.63113431 43.27224615 -67.91015625 48.83203125 C-64.46614364 52.74087992 -60.72000149 56.35591691 -57 60 C-53.37001821 58.96583414 -53.37001821 58.96583414 -51.01171875 56.23828125 C-50.67785156 55.49964844 -50.34398437 54.76101562 -50 54 C-48.30606825 52.00829584 -46.60018859 50.09029127 -44.8125 48.1875 C-44.31782227 47.65415039 -43.82314453 47.12080078 -43.31347656 46.57128906 C-40.14755757 43.17407005 -36.90058601 39.87339989 -33.58984375 36.6171875 C-31.30272333 34.29073086 -29.19714224 31.82073754 -27.06640625 29.3515625 C-22.99600045 24.71945609 -18.7679784 20.22946169 -14.57714844 15.70654297 C-11.09587785 11.9396573 -7.63992127 8.14947907 -4.1796875 4.36328125 C-2.81419927 2.88277878 -1.42415688 1.42415688 0 0 Z " fill="#FAFDFD" transform="translate(190,75)"/>
<path d="M0 0 C0.33 0 0.66 0 1 0 C1.09344616 24.00007033 1.16398066 48.0001134 1.20724869 72.00032902 C1.22787288 83.14408004 1.25599086 94.28771802 1.30175781 105.43139648 C1.34162982 115.1443597 1.36743385 124.85724105 1.37635398 134.57028383 C1.38156808 139.71317361 1.39382034 144.85582917 1.42292023 149.99864388 C1.45009495 154.84050945 1.45844078 159.68204459 1.45243073 164.52397919 C1.45353004 166.29970788 1.46147166 168.07544777 1.4768219 169.85111046 C1.49678246 172.27944484 1.49191773 174.70653867 1.48101807 177.13490295 C1.49266943 177.8343385 1.5043208 178.53377404 1.51632524 179.2544046 C1.45102589 184.6524193 -0.0145467 187.65463276 -3 192 C-7.89602375 196.05391552 -12.49521733 196.56844922 -18.68920898 196.45410156 C-19.52903824 196.45468567 -20.36886749 196.45526978 -21.23414612 196.45587158 C-23.9885606 196.45310216 -26.74187015 196.42206511 -29.49609375 196.390625 C-31.41422433 196.38315853 -33.33236258 196.37746752 -35.25050354 196.37347412 C-40.28288069 196.35824977 -45.31479123 196.31899559 -50.34698486 196.2746582 C-55.4884205 196.23363638 -60.62993202 196.21544837 -65.77148438 196.1953125 C-75.84786052 196.15249818 -85.92389136 196.08428571 -96 196 C-96 195.34 -96 194.68 -96 194 C-66.63 193.67 -37.26 193.34 -7 193 C-7 192.34 -7 191.68 -7 191 C-6.01 191 -5.02 191 -4 191 C-4 190.01 -4 189.02 -4 188 C-3.34 187.67 -2.68 187.34 -2 187 C-1.99576806 186.04232759 -1.99153612 185.08465517 -1.98717594 184.09796238 C-1.88413347 160.83116156 -1.77540481 137.56439266 -1.66066074 114.29764652 C-1.60530477 103.04617938 -1.55181894 91.79470907 -1.50268555 80.54321289 C-1.45987272 70.74019466 -1.41360217 60.93720001 -1.36312145 51.13421816 C-1.33649706 45.94021016 -1.31164349 40.74620691 -1.29092598 35.55217171 C-1.27139527 30.66934486 -1.24726241 25.78656299 -1.21950912 20.90377617 C-1.21011972 19.10620309 -1.2024513 17.30862012 -1.19658089 15.5110321 C-1.18835165 13.06781615 -1.17408428 10.62471029 -1.15821838 8.18153381 C-1.15724028 7.46073027 -1.15626217 6.73992673 -1.15525442 5.99728066 C-1.11412121 1.11412121 -1.11412121 1.11412121 0 0 Z " fill="#54AAC8" transform="translate(251,31)"/>
<path d="M0 0 C0.66 0 1.32 0 2 0 C3.1002746 8.91407456 3.16573217 17.75690762 3.18945312 26.72143555 C3.1974089 28.39626263 3.20579788 30.07108771 3.21458435 31.74591064 C3.23254916 35.33454992 3.24759689 38.92318504 3.26036072 42.51184654 C3.28069037 48.18963332 3.30832542 53.86737051 3.33703613 59.54512024 C3.40203797 72.61704881 3.45763311 85.68901411 3.51302338 98.76098633 C3.56392844 110.75516148 3.61683793 122.7493185 3.67754889 134.74344856 C3.70582858 140.38477587 3.72944817 146.02609746 3.74947357 151.66745985 C3.76289001 155.17716808 3.78029982 158.68684835 3.79878426 162.1965332 C3.80651801 163.8206645 3.81259728 165.44480467 3.81687737 167.06894875 C3.8229595 169.29057582 3.83502462 171.51209562 3.84851074 173.73368835 C3.85366447 174.97526042 3.85881821 176.21683249 3.86412811 177.49602795 C4.00228757 181.05899371 4.46557798 184.47734158 5 188 C5 188.99 5 189.98 5 191 C0.04737511 186.2071372 0.04737511 186.2071372 -0.12304783 181.86469078 C-0.12727357 180.48852521 -0.12586872 179.11233615 -0.12025452 177.73617554 C-0.12110894 176.9790095 -0.12196337 176.22184346 -0.12284368 175.441733 C-0.12449767 172.89130744 -0.11897843 170.3409469 -0.11352539 167.79052734 C-0.11324348 165.96759543 -0.11340134 164.14466341 -0.1139679 162.32173157 C-0.1142557 157.36125452 -0.10836169 152.40080148 -0.10139394 147.44033003 C-0.0951576 142.26064646 -0.09455638 137.08096238 -0.09336853 131.90127563 C-0.09025604 122.08757237 -0.08204376 112.2738802 -0.07201904 102.46018183 C-0.06085535 91.28985371 -0.05534681 80.11952507 -0.05032361 68.94919276 C-0.03986109 45.96612235 -0.02226323 22.9830618 0 0 Z " fill="#3F788C" transform="translate(45,31)"/>
<path d="M0 0 C3.21954645 2.53453657 4.70432435 4.11297305 6 8 C6 11.96 6 15.92 6 20 C46.095 19.505 46.095 19.505 87 19 C87.33 14.38 87.66 9.76 88 5 C90.475 3.02 90.475 3.02 93 1 C92.68160156 1.85078125 92.36320313 2.7015625 92.03515625 3.578125 C90.97823841 7.07193643 90.6343847 10.11391652 90.4375 13.75 C90.09897172 19.80205656 90.09897172 19.80205656 89 22 C61.28 22 33.56 22 5 22 C3.60528492 19.21056983 3.69390823 16.66849436 3.5 13.5625 C3.28369698 10.10551422 3.09651096 7.28953289 2 4 C0.60669619 3.7753715 -0.78989209 3.5710755 -2.1875 3.375 C-2.96480469 3.25898437 -3.74210937 3.14296875 -4.54296875 3.0234375 C-7.44822404 2.99572441 -9.38639503 3.78372202 -12 5 C-11.98839844 6.14339844 -11.97679687 7.28679688 -11.96484375 8.46484375 C-11.95546712 9.95572754 -11.94636679 11.44661309 -11.9375 12.9375 C-11.92912109 13.69224609 -11.92074219 14.44699219 -11.91210938 15.22460938 C-11.90347559 17.14994313 -11.94775667 19.07535581 -12 21 C-14.00503509 23.00503509 -18.00025444 22.25588663 -20.75390625 22.31640625 C-21.52935287 22.33718735 -22.3047995 22.35796844 -23.10374451 22.37937927 C-25.58990308 22.44495802 -28.07617045 22.50379799 -30.5625 22.5625 C-32.24415204 22.60567733 -33.92579294 22.64929136 -35.60742188 22.69335938 C-39.73816871 22.80064779 -43.86902536 22.90189132 -48 23 C-48.268125 23.639375 -48.53625 24.27875 -48.8125 24.9375 C-50 27 -50 27 -53 28 C-53.33 32.29 -53.66 36.58 -54 41 C-54.33 41 -54.66 41 -55 41 C-56.5871267 30.33864888 -56.5871267 30.33864888 -54.4375 25.4375 C-50.77984146 21.77984146 -47.5619824 20.14700887 -42.38134766 19.65942383 C-41.07214355 19.67513428 -39.76293945 19.69084473 -38.4140625 19.70703125 C-37.71227875 19.71127609 -37.010495 19.71552094 -36.28744507 19.71989441 C-34.0662244 19.73656401 -31.84594212 19.77419128 -29.625 19.8125 C-28.11069027 19.82756212 -26.59636619 19.84124784 -25.08203125 19.85351562 C-21.38772068 19.88642817 -17.69395207 19.93812741 -14 20 C-14.04640625 19.04738281 -14.0928125 18.09476563 -14.140625 17.11328125 C-14.17671875 15.85902344 -14.2128125 14.60476562 -14.25 13.3125 C-14.29640625 12.07113281 -14.3428125 10.82976563 -14.390625 9.55078125 C-13.93733018 5.4303313 -12.89748679 3.89212108 -10 1 C-6.78070427 -0.60964787 -3.48112288 -0.60686242 0 0 Z " fill="#59B0CE" transform="translate(102,0)"/>
<path d="M0 0 C3.10813959 2.97300308 4.16958106 4.80734349 4.3125 9.125 C4.34988281 9.84945312 4.38726562 10.57390625 4.42578125 11.3203125 C3.99242541 14.04767125 3.29677942 15.28685371 1.91357422 17.61938477 C-0.48934796 22.34179315 -0.07910939 25.69908228 0.95703125 30.76953125 C1.16884285 31.97375984 1.16884285 31.97375984 1.38493347 33.20231628 C1.83633456 35.7442152 2.32262898 38.27776119 2.8125 40.8125 C3.28498159 43.36582417 3.75002965 45.92026379 4.20793152 48.47624207 C4.49398693 50.06067894 4.78963536 51.64342071 5.09590149 53.22407532 C5.72713191 56.61337795 6.10887891 58.67336326 5 62 C0.07511595 63.94235578 -5.86206858 63.18444631 -11.0625 63.1875 C-12.16400391 63.19974609 -13.26550781 63.21199219 -14.40039062 63.22460938 C-15.98303711 63.22750977 -15.98303711 63.22750977 -17.59765625 63.23046875 C-18.56195557 63.23457764 -19.52625488 63.23868652 -20.51977539 63.24291992 C-23 63 -23 63 -26 61 C-26.46128808 55.1570176 -25.6019479 49.72814359 -24.5 44 C-24.35691406 43.22527344 -24.21382812 42.45054687 -24.06640625 41.65234375 C-23.71727671 39.76704421 -23.35954684 37.88334061 -23 36 C-22.67 36 -22.34 36 -22 36 C-20.53895183 43.85313392 -19.37580504 52.75161008 -23 60 C-14.09 60 -5.18 60 4 60 C3.01 57.36 2.02 54.72 1 52 C0.56109416 50.16725062 0.17650915 48.31995034 -0.1328125 46.4609375 C-0.2987793 45.47416016 -0.46474609 44.48738281 -0.63574219 43.47070312 C-0.79719727 42.44912109 -0.95865234 41.42753906 -1.125 40.375 C-1.29676758 39.31990234 -1.46853516 38.26480469 -1.64550781 37.17773438 C-2.86398873 29.45989989 -3.72483588 21.81466112 -4 14 C-1.525 14.495 -1.525 14.495 1 15 C0.7525 13.8553125 0.7525 13.8553125 0.5 12.6875 C0 10 0 10 0 7 C-0.33 6.34 -0.66 5.68 -1 5 C-0.72057545 3.32345271 -0.39171753 1.65391846 0 0 Z " fill="#4EABCD" transform="translate(159,245)"/>
<path d="M0 0 C0.86024529 0.20935684 0.86024529 0.20935684 1.73786926 0.42294312 C11.12885612 2.43394142 20.45592911 2.35159307 30.01171875 2.4140625 C31.83446601 2.43280464 33.65720487 2.45238025 35.47993469 2.4727478 C40.24237076 2.52375352 45.00483486 2.56354673 49.76739502 2.60089111 C54.64122267 2.64113027 59.51493691 2.69213107 64.38867188 2.7421875 C73.92570121 2.83857235 83.46279506 2.92309517 93 3 C93.05791844 6.12492251 93.09356746 9.24970766 93.125 12.375 C93.14175781 13.26445312 93.15851563 14.15390625 93.17578125 15.0703125 C93.18222656 15.92109375 93.18867188 16.771875 93.1953125 17.6484375 C93.20578613 18.43395996 93.21625977 19.21948242 93.22705078 20.02880859 C93 22 93 22 91 24 C88.875 23.625 88.875 23.625 87 23 C88.375 21.5 88.375 21.5 90 20 C90.66 20 91.32 20 92 20 C92 15.05 92 10.1 92 5 C90.42265579 5.00999275 90.42265579 5.00999275 88.81344604 5.02018738 C78.89666674 5.08103952 68.97992538 5.12599238 59.06300163 5.15543652 C53.9647734 5.171083 48.86669608 5.19230283 43.76855469 5.22631836 C38.84726608 5.25894789 33.92612249 5.27686067 29.00473404 5.28463173 C27.1284774 5.29016877 25.25222857 5.30098128 23.37603378 5.31719017 C20.74514449 5.33901221 18.11485216 5.34196493 15.48388672 5.34057617 C14.7106456 5.351362 13.93740448 5.36214783 13.14073181 5.3732605 C8.35548729 5.34598248 5.0528948 4.56675522 1 2 C0.67 1.34 0.34 0.68 0 0 Z " fill="#325968" transform="translate(50,222)"/>
<path d="M0 0 C3.21954645 2.53453657 4.70432435 4.11297305 6 8 C6.068991 10.06145107 6.08467727 12.12501401 6.0625 14.1875 C6.05347656 15.27417969 6.04445312 16.36085938 6.03515625 17.48046875 C6.02355469 18.31191406 6.01195312 19.14335937 6 20 C5.34 20 4.68 20 4 20 C3.93941406 19.09636719 3.87882812 18.19273438 3.81640625 17.26171875 C3.73261719 16.08222656 3.64882812 14.90273437 3.5625 13.6875 C3.48128906 12.51574219 3.40007812 11.34398437 3.31640625 10.13671875 C3.1132629 6.97409042 3.1132629 6.97409042 2 4 C0.60669619 3.7753715 -0.78989209 3.5710755 -2.1875 3.375 C-2.96480469 3.25898437 -3.74210937 3.14296875 -4.54296875 3.0234375 C-7.44822404 2.99572441 -9.38639503 3.78372202 -12 5 C-11.98839844 6.14339844 -11.97679687 7.28679688 -11.96484375 8.46484375 C-11.95546712 9.95572754 -11.94636679 11.44661309 -11.9375 12.9375 C-11.92912109 13.69224609 -11.92074219 14.44699219 -11.91210938 15.22460938 C-11.90347559 17.14994313 -11.94775667 19.07535581 -12 21 C-14.00503509 23.00503509 -18.00025444 22.25588663 -20.75390625 22.31640625 C-21.52935287 22.33718735 -22.3047995 22.35796844 -23.10374451 22.37937927 C-25.58990308 22.44495802 -28.07617045 22.50379799 -30.5625 22.5625 C-32.24415204 22.60567733 -33.92579294 22.64929136 -35.60742188 22.69335938 C-39.73816871 22.80064779 -43.86902536 22.90189132 -48 23 C-48.268125 23.639375 -48.53625 24.27875 -48.8125 24.9375 C-50 27 -50 27 -53 28 C-53.33 32.29 -53.66 36.58 -54 41 C-54.33 41 -54.66 41 -55 41 C-56.5871267 30.33864888 -56.5871267 30.33864888 -54.4375 25.4375 C-50.77984146 21.77984146 -47.5619824 20.14700887 -42.38134766 19.65942383 C-41.07214355 19.67513428 -39.76293945 19.69084473 -38.4140625 19.70703125 C-37.71227875 19.71127609 -37.010495 19.71552094 -36.28744507 19.71989441 C-34.0662244 19.73656401 -31.84594212 19.77419128 -29.625 19.8125 C-28.11069027 19.82756212 -26.59636619 19.84124784 -25.08203125 19.85351562 C-21.38772068 19.88642817 -17.69395207 19.93812741 -14 20 C-14.04640625 19.04738281 -14.0928125 18.09476563 -14.140625 17.11328125 C-14.17671875 15.85902344 -14.2128125 14.60476562 -14.25 13.3125 C-14.29640625 12.07113281 -14.3428125 10.82976563 -14.390625 9.55078125 C-13.93733018 5.4303313 -12.89748679 3.89212108 -10 1 C-6.78070427 -0.60964787 -3.48112288 -0.60686242 0 0 Z " fill="#4793AB" transform="translate(102,0)"/>
<path d="M0 0 C0.99 0.495 0.99 0.495 2 1 C-0.90393619 5.13252457 -3.30982495 7.12628345 -8 9 C-10.86624733 9.397825 -13.6858592 9.38040427 -16.57568359 9.34057617 C-17.41536682 9.34101425 -18.25505005 9.34145233 -19.12017822 9.34190369 C-21.87983922 9.33982318 -24.63888338 9.31652724 -27.3984375 9.29296875 C-29.31799996 9.28737017 -31.23756672 9.28310131 -33.15713501 9.28010559 C-38.19765151 9.2686775 -43.23790671 9.23922781 -48.27832031 9.20599365 C-53.42639634 9.17524887 -58.57451478 9.16159084 -63.72265625 9.14648438 C-73.81521867 9.11435619 -83.90758756 9.06318444 -94 9 C-94 8.34 -94 7.68 -94 7 C-64.63 6.67 -35.26 6.34 -5 6 C-5 5.34 -5 4.68 -5 4 C-4.01 4 -3.02 4 -2 4 C-2 3.01 -2 2.02 -2 1 C-1.34 0.67 -0.68 0.34 0 0 Z " fill="#325C6B" transform="translate(249,218)"/>
<path d="M0 0 C0.33 0 0.66 0 1 0 C2.46104817 7.85313392 3.62419496 16.75161008 0 24 C5.94 24 11.88 24 18 24 C18 24.99 18 25.98 18 27 C15.06225537 27.05390357 12.12549768 27.0936255 9.1875 27.125 C8.35412109 27.14175781 7.52074219 27.15851563 6.66210938 27.17578125 C5.85966797 27.18222656 5.05722656 27.18867188 4.23046875 27.1953125 C3.12288208 27.21102295 3.12288208 27.21102295 1.99291992 27.22705078 C0 27 0 27 -3 25 C-3.46128808 19.1570176 -2.6019479 13.72814359 -1.5 8 C-1.35691406 7.22527344 -1.21382812 6.45054687 -1.06640625 5.65234375 C-0.71727671 3.76704421 -0.35954684 1.88334061 0 0 Z " fill="#6D98A1" transform="translate(136,281)"/>
<path d="M0 0 C1.48828125 1.05078125 1.48828125 1.05078125 3 3 C3.29296875 6.35546875 3.29296875 6.35546875 3.1875 10.1875 C3.16042969 11.45980469 3.13335937 12.73210938 3.10546875 14.04296875 C3.07066406 15.01878906 3.03585938 15.99460937 3 17 C3.94842773 16.98952637 4.89685547 16.97905273 5.87402344 16.96826172 C9.40008991 16.93413292 12.92598029 16.90907832 16.45214844 16.89013672 C17.97691623 16.88009256 19.50166484 16.86645469 21.02636719 16.84912109 C23.22075138 16.82480262 25.41488042 16.81350111 27.609375 16.8046875 C28.92905273 16.79421387 30.24873047 16.78374023 31.60839844 16.77294922 C34.73220559 16.9820725 36.40580238 17.33394864 39 19 C39 19.33 39 19.66 39 20 C33.89118974 19.88205478 28.78258636 19.75782953 23.67407227 19.62768555 C21.93485712 19.58427427 20.19559765 19.54260388 18.45629883 19.50268555 C15.96161512 19.44513232 13.4671559 19.3813958 10.97265625 19.31640625 C9.7992141 19.29133751 9.7992141 19.29133751 8.60206604 19.26576233 C3.11387171 19.11387171 3.11387171 19.11387171 2 18 C1.78854929 15.92073471 1.63095228 13.8358828 1.5 11.75 C1.24608531 7.74177532 0.88432809 3.92052118 0 0 Z " fill="#5BAEC9" transform="translate(206,3)"/>
<path d="M0 0 C1.32 0.33 2.64 0.66 4 1 C3.979375 1.78375 3.95875 2.5675 3.9375 3.375 C3.81315937 5.98114961 3.81315937 5.98114961 5 8 C4.113125 8.721875 3.22625 9.44375 2.3125 10.1875 C0.33479725 11.83023222 -1.45129221 13.4638281 -3.25 15.3125 C-6.55748854 18.54481835 -10.13258193 21.31206464 -13.79296875 24.1328125 C-16.19150389 25.98722912 -16.19150389 25.98722912 -18 29 C-18.66 28.67 -19.32 28.34 -20 28 C-19.28714844 27.29488281 -18.57429687 26.58976562 -17.83984375 25.86328125 C-10.67536822 18.69376209 -3.88060005 11.2646271 2 3 C1.34 2.01 0.68 1.02 0 0 Z " fill="#59BCDE" transform="translate(205,89)"/>
<path d="M0 0 C0.70178375 0.00424484 1.4035675 0.00848969 2.12661743 0.01286316 C4.3478381 0.02953276 6.56812038 0.06716003 8.7890625 0.10546875 C10.30337223 0.12053087 11.81769631 0.13421659 13.33203125 0.14648438 C17.02634182 0.17939692 20.72011043 0.23109616 24.4140625 0.29296875 C24.4140625 0.62296875 24.4140625 0.95296875 24.4140625 1.29296875 C14.8440625 1.62296875 5.2740625 1.95296875 -4.5859375 2.29296875 C-4.5859375 2.62296875 -4.5859375 2.95296875 -4.5859375 3.29296875 C-6.2359375 3.29296875 -7.8859375 3.29296875 -9.5859375 3.29296875 C-9.8540625 3.93234375 -10.1221875 4.57171875 -10.3984375 5.23046875 C-11.5859375 7.29296875 -11.5859375 7.29296875 -14.5859375 8.29296875 C-14.9159375 12.58296875 -15.2459375 16.87296875 -15.5859375 21.29296875 C-15.9159375 21.29296875 -16.2459375 21.29296875 -16.5859375 21.29296875 C-18.1730642 10.63161763 -18.1730642 10.63161763 -16.0234375 5.73046875 C-11.15871806 0.86574931 -6.7546866 -0.08105624 0 0 Z " fill="#519EB7" transform="translate(63.5859375,19.70703125)"/>
<path d="M0 0 C0 3 0 3 -1 6 C-1.30698862 9.38540224 -1.50904595 12.77135062 -1.71875 16.1640625 C-2 19 -2 19 -3 20 C-5.44830426 20.08843793 -7.86820599 20.11528752 -10.31640625 20.09765625 C-11.04746078 20.0962413 -11.77851532 20.09482635 -12.53172302 20.09336853 C-14.87535632 20.08775408 -17.21889539 20.07519922 -19.5625 20.0625 C-21.14778508 20.05748686 -22.73307166 20.05292363 -24.31835938 20.04882812 C-28.2122761 20.03777997 -32.10612205 20.02050572 -36 20 C-36 19.67 -36 19.34 -36 19 C-20.655 18.505 -20.655 18.505 -5 18 C-4.67 13.38 -4.34 8.76 -4 4 C-2.68 2.68 -1.36 1.36 0 0 Z " fill="#61A5BE" transform="translate(194,1)"/>
<path d="M0 0 C0.33 0 0.66 0 1 0 C1.33 3.96 1.66 7.92 2 12 C2.66 12 3.32 12 4 12 C4.33 14.97 4.66 17.94 5 21 C4.34 21 3.68 21 3 21 C-0.41407016 15.6228395 -2.88601737 11.58184335 -2 5 C-1 2.0625 -1 2.0625 0 0 Z " fill="#58AEC9" transform="translate(136,246)"/>
<path d="M0 0 C1.95830315 3.37143765 2.52648691 6.45384085 3.0703125 10.296875 C3.24433594 11.50214844 3.41835937 12.70742188 3.59765625 13.94921875 C3.77167969 15.20347656 3.94570312 16.45773437 4.125 17.75 C4.30675781 19.01972656 4.48851562 20.28945313 4.67578125 21.59765625 C5.12339375 24.73094377 5.56454856 27.86500317 6 31 C0.95919623 33.13896525 -1.65570224 32.90581318 -7 32 C-5 30 -5 30 -2.8359375 29.8046875 C-2.02382812 29.82789063 -1.21171875 29.85109375 -0.375 29.875 C0.85089844 29.90207031 0.85089844 29.90207031 2.1015625 29.9296875 C3.04128906 29.96449219 3.04128906 29.96449219 4 30 C3.05359789 23.66716035 2.08756804 17.35053139 0.875 11.0625 C0.1743711 7.31851431 -0.20672215 3.82435974 0 0 Z " fill="#A6D6DF" transform="translate(159,275)"/>
<path d="M0 0 C3 2 3 2 3.50830078 3.88842773 C3.57001465 4.64583252 3.63172852 5.4032373 3.6953125 6.18359375 C3.77088379 7.02438477 3.84645508 7.86517578 3.92431641 8.73144531 C3.99054199 9.62444336 4.05676758 10.51744141 4.125 11.4375 C4.20282715 12.33952148 4.2806543 13.24154297 4.36083984 14.17089844 C4.51452252 15.96289644 4.66259317 17.75538574 4.8046875 19.54833984 C5.04926246 22.61836702 5.3356698 25.68390355 5.625 28.75 C5.7510145 30.16657679 5.87651745 31.58320026 6 33 C5.34 32.67 4.68 32.34 4 32 C3.40576172 29.81030273 3.40576172 29.81030273 2.9296875 26.93359375 C2.75566406 25.89009766 2.58164063 24.84660156 2.40234375 23.77148438 C2.14130859 22.12116211 2.14130859 22.12116211 1.875 20.4375 C1.69324219 19.36435547 1.51148438 18.29121094 1.32421875 17.18554688 C0.37841553 11.37916844 -0.21386549 5.8813009 0 0 Z " fill="#5FB8D6" transform="translate(156,265)"/>
<path d="M0 0 C0.66 0 1.32 0 2 0 C4.01782732 2.90567134 5.35494404 5.51669784 6 9 C8.31 9 10.62 9 13 9 C13 9.66 13 10.32 13 11 C10.525 12.485 10.525 12.485 8 14 C4.04 10.04 0.08 6.08 -4 2 C-3.34 1.67 -2.68 1.34 -2 1 C-1.34 1.33 -0.68 1.66 0 2 C0 1.34 0 0.68 0 0 Z " fill="#4BBADD" transform="translate(125,122)"/>
<path d="M0 0 C1.32 0.33 2.64 0.66 4 1 C2.62736637 4.05160609 1.04043427 6.24826932 -1.2578125 8.671875 C-1.88300781 9.33574219 -2.50820312 9.99960938 -3.15234375 10.68359375 C-3.80332031 11.36550781 -4.45429688 12.04742187 -5.125 12.75 C-5.78371094 13.44738281 -6.44242188 14.14476563 -7.12109375 14.86328125 C-8.74327774 16.57950489 -10.36965379 18.29153435 -12 20 C-12.33 19.01 -12.66 18.02 -13 17 C-12.01 16.67 -11.02 16.34 -10 16 C-10 14.68 -10 13.36 -10 12 C-8.02 11.34 -6.04 10.68 -4 10 C-3.67 8.35 -3.34 6.7 -3 5 C-2.01 5 -1.02 5 0 5 C0 3.35 0 1.7 0 0 Z " fill="#E1FAFD" transform="translate(183,113)"/>
<path d="M0 0 C0.66 0.33 1.32 0.66 2 1 C-0.18101677 3.38102267 -2.37098779 5.75363725 -4.5625 8.125 C-5.17158203 8.79015625 -5.78066406 9.4553125 -6.40820312 10.140625 C-10.37816402 14.42566216 -14.49616894 18.27868785 -19 22 C-17.58654688 19.0666762 -16.11518141 16.80415813 -13.9375 14.375 C-12.33621517 12.5818742 -11.07671842 11.15343684 -10 9 C-9.01 9 -8.02 9 -7 9 C-5.79371992 6.66785852 -4.8345262 4.50357861 -4 2 C-2.0625 0.75 -2.0625 0.75 0 0 Z " fill="#62BCD7" transform="translate(162,103)"/>
<path d="M0 0 C2.31 0 4.62 0 7 0 C7.33 0.99 7.66 1.98 8 3 C8.639375 3.309375 9.27875 3.61875 9.9375 3.9375 C12.47802844 5.24625707 12.85331176 6.45466064 14 9 C13.46890625 8.566875 12.9378125 8.13375 12.390625 7.6875 C11.68421875 7.130625 10.9778125 6.57375 10.25 6 C9.55390625 5.443125 8.8578125 4.88625 8.140625 4.3125 C5.85015251 2.65152802 5.85015251 2.65152802 2 3 C0.0207215 4.2832557 0.0207215 4.2832557 -1.75 6 C-2.36359375 6.556875 -2.9771875 7.11375 -3.609375 7.6875 C-4.06828125 8.120625 -4.5271875 8.55375 -5 9 C-4.625 7.0625 -4.625 7.0625 -4 5 C-3.34 4.67 -2.68 4.34 -2 4 C-0.86649466 1.98330173 -0.86649466 1.98330173 0 0 Z " fill="#5CBAD5" transform="translate(103,109)"/>
<path d="M0 0 C0.33 0 0.66 0 1 0 C1.02505615 0.56920166 1.0501123 1.13840332 1.07592773 1.72485352 C1.19293894 4.33757313 1.3151828 6.95002362 1.4375 9.5625 C1.47681641 10.45775391 1.51613281 11.35300781 1.55664062 12.27539062 C1.79354264 17.25033297 2.2462989 22.07877518 3 27 C3 27.99 3 28.98 3 30 C0.28685248 27.79032315 -0.91119179 26.69634252 -1.36230469 23.15917969 C-1.29946289 22.09086914 -1.23662109 21.02255859 -1.171875 19.921875 C-1.11386719 18.76171875 -1.05585937 17.6015625 -0.99609375 16.40625 C-0.91488281 15.1996875 -0.83367188 13.993125 -0.75 12.75 C-0.68425781 11.52796875 -0.61851563 10.3059375 -0.55078125 9.046875 C-0.38577869 6.02968541 -0.20150265 3.01493592 0 0 Z " fill="#499CB8" transform="translate(47,192)"/>
<path d="M0 0 C0.33 0 0.66 0 1 0 C0.54775239 5.91492272 -0.1582605 11.35199888 -2 17 C-3.5625 15.5625 -3.5625 15.5625 -5 13 C-4.96846324 9.94619073 -4.53266629 7.00346778 -4 4 C-3.34 4.66 -2.68 5.32 -2 6 C-1.34 4.02 -0.68 2.04 0 0 Z " fill="#4B97B1" transform="translate(142,265)"/>
<path d="M0 0 C1.32 0.66 2.64 1.32 4 2 C2.625 4 2.625 4 1 6 C0.34 6 -0.32 6 -1 6 C1.475 9.465 1.475 9.465 4 13 C2.68 12.67 1.36 12.34 0 12 C-0.33 11.01 -0.66 10.02 -1 9 C-3.00016466 7.79117904 -3.00016466 7.79117904 -5 7 C-4.01 6.67 -3.02 6.34 -2 6 C-2.33 5.01 -2.66 4.02 -3 3 C-2.01 3 -1.02 3 0 3 C0 2.01 0 1.02 0 0 Z " fill="#5CBEDF" transform="translate(91,120)"/>
<path d="M0 0 C0.33 0 0.66 0 1 0 C2.23839599 6.65637843 2.09139136 13.2471936 2 20 C1.34 20.33 0.68 20.66 0 21 C-0.19569589 18.43788925 -0.38180612 15.87567609 -0.5625 13.3125 C-0.61857422 12.59126953 -0.67464844 11.87003906 -0.73242188 11.12695312 C-0.99955159 7.22685936 -1.00887596 3.78888972 0 0 Z " fill="#5492A8" transform="translate(136,281)"/>
<path d="M0 0 C0.33 0.66 0.66 1.32 1 2 C-0.61594832 4.04119788 -2.2856382 6.04072937 -4 8 C-4.66 8 -5.32 8 -6 8 C-6.4021875 9.1446875 -6.4021875 9.1446875 -6.8125 10.3125 C-7.94424112 12.87380884 -8.91223401 14.19692938 -11 16 C-11.99 15.67 -12.98 15.34 -14 15 C-9.38 10.05 -4.76 5.1 0 0 Z " fill="#E2FCFE" transform="translate(166,101)"/>
<path d="M0 0 C0 3.33018015 -0.47896852 6.39848881 -1 9.6875 C-1.185625 10.86699219 -1.37125 12.04648438 -1.5625 13.26171875 C-1.706875 14.16535156 -1.85125 15.06898437 -2 16 C-2.99 16 -3.98 16 -5 16 C-4.93970033 14.08247047 -4.85083293 12.16582574 -4.75 10.25 C-4.70359375 9.18265625 -4.6571875 8.1153125 -4.609375 7.015625 C-3.89410286 3.47594492 -2.74415095 2.26118038 0 0 Z " fill="#417E90" transform="translate(194,1)"/>
<path d="M0 0 C0 0.99 0 1.98 0 3 C-1 4 -2 5 -3 6 C-3.433125 7.2375 -3.433125 7.2375 -3.875 8.5 C-5.31275397 11.69500881 -6.84787421 12.5815434 -10 14 C-10.66 13.67 -11.32 13.34 -12 13 C-10.56354149 11.39490066 -9.12579294 9.79095576 -7.6875 8.1875 C-6.88699219 7.29417969 -6.08648437 6.40085938 -5.26171875 5.48046875 C-3.54775419 3.60073214 -1.82122396 1.77407253 0 0 Z " fill="#5DBBDA" transform="translate(148,157)"/>
<path d="M0 0 C0 4.36785458 -1.86422436 7.46917197 -4.4375 10.9375 C-4.953125 11.288125 -5.46875 11.63875 -6 12 C-7.32 11.67 -8.64 11.34 -10 11 C-6.7 7.37 -3.4 3.74 0 0 Z " fill="#66C2DD" transform="translate(166,137)"/>
<path d="M0 0 C1.5 1.3125 1.5 1.3125 3 3 C3 3.99 3 4.98 3 6 C3.99 5.67 4.98 5.34 6 5 C7.06775224 6.96466413 8.06553465 8.96855359 9 11 C8.67 11.66 8.34 12.32 8 13 C4.37 9.37 0.74 5.74 -3 2 C-2.01 1.34 -1.02 0.68 0 0 Z " fill="#4FBAD8" transform="translate(194,74)"/>
<path d="M0 0 C1.32 0.33 2.64 0.66 4 1 C1.03 3.97 -1.94 6.94 -5 10 C-5.33 9.01 -5.66 8.02 -6 7 C-5.34 7 -4.68 7 -4 7 C-3.896875 6.21625 -3.79375 5.4325 -3.6875 4.625 C-3 2 -3 2 0 0 Z " fill="#58B9D8" transform="translate(186,75)"/>
<path d="M0 0 C0.33 0 0.66 0 1 0 C0.98839844 0.74765625 0.97679687 1.4953125 0.96484375 2.265625 C0.95582031 3.25046875 0.94679687 4.2353125 0.9375 5.25 C0.92589844 6.22453125 0.91429687 7.1990625 0.90234375 8.203125 C0.98804423 10.65758678 1.29293934 12.66168914 2 15 C1.01 15 0.02 15 -1 15 C-2.77882289 9.66353134 -2.44723163 5.04741524 0 0 Z " fill="#355C68" transform="translate(136,246)"/>
<path d="M0 0 C0.66 0 1.32 0 2 0 C0.52278578 3.45201639 -1.43794001 5.64961936 -4.125 8.25 C-4.84945312 8.95640625 -5.57390625 9.6628125 -6.3203125 10.390625 C-6.87460938 10.92171875 -7.42890625 11.4528125 -8 12 C-8.33 10.68 -8.66 9.36 -9 8 C-8.360625 7.896875 -7.72125 7.79375 -7.0625 7.6875 C-6.381875 7.460625 -5.70125 7.23375 -5 7 C-4.67 6.01 -4.34 5.02 -4 4 C-3.34 4 -2.68 4 -2 4 C-1.34 2.68 -0.68 1.36 0 0 Z " fill="#D3F6FC" transform="translate(152,150)"/>
<path d="M0 0 C0.66 0.33 1.32 0.66 2 1 C0.71034824 2.37562854 -0.62689293 3.70766393 -2 5 C-2.66 5 -3.32 5 -4 5 C-4.268125 5.598125 -4.53625 6.19625 -4.8125 6.8125 C-6.02493496 9.04593283 -6.94652273 10.49938199 -9 12 C-11.1875 11.6875 -11.1875 11.6875 -13 11 C-10.94766315 8.7522025 -9.99332739 7.9977758 -7 7 C-5.29220027 5.37550757 -3.62449243 3.70779973 -2 2 C-1.34 1.34 -0.68 0.68 0 0 Z " fill="#4BB9DF" transform="translate(194,110)"/>
<path d="M0 0 C0.33 0 0.66 0 1 0 C1.05380578 2.79192205 1.09357669 5.5828141 1.125 8.375 C1.15013672 9.56609375 1.15013672 9.56609375 1.17578125 10.78125 C1.19335473 12.85492015 1.10335168 14.92883241 1 17 C0.34 17.66 -0.32 18.32 -1 19 C-3.125 18.625 -3.125 18.625 -5 18 C-3.625 16.5 -3.625 16.5 -2 15 C-1.34 15 -0.68 15 0 15 C0 10.05 0 5.1 0 0 Z " fill="#254953" transform="translate(142,227)"/>
<path d="M0 0 C2.31 0.33 4.62 0.66 7 1 C6.34 2.65 5.68 4.3 5 6 C3.68 6 2.36 6 1 6 C0.67 4.02 0.34 2.04 0 0 Z " fill="#62B0C9" transform="translate(155,259)"/>
<path d="M0 0 C3.5 0.4375 3.5 0.4375 5.4375 1.9375 C5.788125 2.4325 6.13875 2.9275 6.5 3.4375 C3.95297384 4.71101308 3.0717055 4.23941925 0.375 3.5 C-0.34945312 3.30535156 -1.07390625 3.11070313 -1.8203125 2.91015625 C-2.37460938 2.75417969 -2.92890625 2.59820312 -3.5 2.4375 C-3.83 3.4275 -4.16 4.4175 -4.5 5.4375 C-5.16 5.1075 -5.82 4.7775 -6.5 4.4375 C-4.67773025 1.00734517 -3.95802503 0.49475313 0 0 Z " fill="#56AEC6" transform="translate(199.5,-0.4375)"/>
<path d="M0 0 C3.26008643 3.16952847 6.22237877 6.39937989 9 10 C6.6875 9.8125 6.6875 9.8125 4 9 C2.3125 6.5625 2.3125 6.5625 1 4 C0.34 3.34 -0.32 2.68 -1 2 C-0.67 1.34 -0.34 0.68 0 0 Z " fill="#D3F5FA" transform="translate(115,117)"/>
<path d="M0 0 C1.65 1.65 3.3 3.3 5 5 C1.7 5.33 -1.6 5.66 -5 6 C-3.35 4.02 -1.7 2.04 0 0 Z " fill="#D3F6FC" transform="translate(190,75)"/>
<path d="M0 0 C2.31 1.65 4.62 3.3 7 5 C7.66 4.67 8.32 4.34 9 4 C9 4.99 9 5.98 9 7 C5.86650268 8.04449911 5.01031744 7.93423645 2 7 C1.34 4.69 0.68 2.38 0 0 Z " fill="#56BCDB" transform="translate(127,167)"/>
<path d="M0 0 C0.33 0.99 0.66 1.98 1 3 C-4.625 8 -4.625 8 -8 8 C-8.33 6.35 -8.66 4.7 -9 3 C-8.4225 3.37125 -7.845 3.7425 -7.25 4.125 C-5.0276676 5.25915218 -5.0276676 5.25915218 -2.8125 4.3125 C-0.69106619 3.04471168 -0.69106619 3.04471168 0 0 Z " fill="#D7F7FB" transform="translate(139,130)"/>
<path d="M0 0 C0.33 1.32 0.66 2.64 1 4 C-1.97 6.475 -1.97 6.475 -5 9 C-5.66 8.67 -6.32 8.34 -7 8 C-4.69 5.36 -2.38 2.72 0 0 Z " fill="#D7F5FB" transform="translate(184,81)"/>
<path d="M0 0 C0.66 0 1.32 0 2 0 C0.63016497 3.16115776 0.0109362 3.9927092 -3 6 C-4.32 4.35 -5.64 2.7 -7 1 C-5.5459375 1.0309375 -5.5459375 1.0309375 -4.0625 1.0625 C-1.12534105 1.35618499 -1.12534105 1.35618499 0 0 Z " fill="#D6FAFE" transform="translate(136,167)"/>
<path d="M0 0 C0.66 0.33 1.32 0.66 2 1 C1.04882866 2.1725131 0.08882991 3.33787015 -0.875 4.5 C-1.40867188 5.1496875 -1.94234375 5.799375 -2.4921875 6.46875 C-2.98976562 6.9740625 -3.48734375 7.479375 -4 8 C-4.66 8 -5.32 8 -6 8 C-5.67 6.68 -5.34 5.36 -5 4 C-4.0409375 3.8453125 -4.0409375 3.8453125 -3.0625 3.6875 C-2.381875 3.460625 -1.70125 3.23375 -1 3 C-0.67 2.01 -0.34 1.02 0 0 Z " fill="#DAF6FD" transform="translate(194,105)"/>
<path d="M0 0 C2.97 0 5.94 0 9 0 C9 0.66 9 1.32 9 2 C6.5 3.625 6.5 3.625 4 5 C2.68 3.35 1.36 1.7 0 0 Z " fill="#5EB8D4" transform="translate(129,131)"/>
<path d="M0 0 C1.48828125 1.08203125 1.48828125 1.08203125 3 3 C3.29296875 6.13671875 3.29296875 6.13671875 3.1875 9.6875 C3.16042969 10.86699219 3.13335937 12.04648438 3.10546875 13.26171875 C3.07066406 14.16535156 3.03585938 15.06898437 3 16 C2.67 16 2.34 16 2 16 C1.93941406 15.26394531 1.87882813 14.52789062 1.81640625 13.76953125 C1.73261719 12.79371094 1.64882812 11.81789063 1.5625 10.8125 C1.48128906 9.84957031 1.40007812 8.88664063 1.31640625 7.89453125 C1.02333849 5.21350398 0.57296246 2.6337014 0 0 Z " fill="#57A6BE" transform="translate(206,3)"/>
<path d="M0 0 C1.485 0.99 1.485 0.99 3 2 C3.40843923 4.71203652 3.13336867 7.2437142 3 10 C2.01 9.34 1.02 8.68 0 8 C-0.40843923 5.28796348 -0.13336867 2.7562858 0 0 Z " fill="#7DC5DD" transform="translate(156,265)"/>
<path d="M0 0 C3.63 0.66 7.26 1.32 11 2 C10.34 2.66 9.68 3.32 9 4 C5.5 3.8125 5.5 3.8125 2 3 C1.34 2.01 0.68 1.02 0 0 Z " fill="#407B8E" transform="translate(50,222)"/>
<path d="M0 0 C0.99 0.66 1.98 1.32 3 2 C1.35 3.65 -0.3 5.3 -2 7 C-2.33 5.02 -2.66 3.04 -3 1 C-2.01 0.67 -1.02 0.34 0 0 Z " fill="#5DBFDF" transform="translate(167,95)"/>
<path d="M0 0 C1 2 1 2 0.4375 4 C-1.57302108 6.79724672 -3.74418077 7.15065585 -7 8 C-6.02133662 6.85373678 -5.04205413 5.70800212 -4.0625 4.5625 C-3.51722656 3.92441406 -2.97195312 3.28632812 -2.41015625 2.62890625 C-1.63204305 1.73008851 -0.84063472 0.84063472 0 0 Z " fill="#D7F7FC" transform="translate(176,90)"/>
<path d="M0 0 C2.99324263 1.0975223 3.84610901 1.67682892 5.25 4.625 C5.4975 5.40875 5.745 6.1925 6 7 C4.35 7 2.7 7 1 7 C1.020625 6.21625 1.04125 5.4325 1.0625 4.625 C1.18684063 2.01885039 1.18684063 2.01885039 0 0 Z " fill="#56ADCC" transform="translate(245,23)"/>
<path d="M0 0 C0.6875 1.8125 0.6875 1.8125 1 4 C-0.3125 5.75 -0.3125 5.75 -2 7 C-2.66 7 -3.32 7 -4 7 C-3.43628586 3.73045798 -2.50037734 2.17424117 0 0 Z " fill="#58BEE0" transform="translate(201,100)"/>
<path d="M0 0 C2.31 1.98 4.62 3.96 7 6 C6.01 6.99 5.02 7.98 4 9 C0 2.25 0 2.25 0 0 Z " fill="#D0F6FA" transform="translate(201,86)"/>
<path d="M0 0 C0.33 0.99 0.66 1.98 1 3 C0 4 0 4 -2.72265625 4.09765625 C-4.37587891 4.08025391 -4.37587891 4.08025391 -6.0625 4.0625 C-7.16722656 4.05347656 -8.27195313 4.04445313 -9.41015625 4.03515625 C-10.69212891 4.01775391 -10.69212891 4.01775391 -12 4 C-12 3.67 -12 3.34 -12 3 C-10.95199219 2.92652344 -10.95199219 2.92652344 -9.8828125 2.8515625 C-8.97273437 2.77679687 -8.06265625 2.70203125 -7.125 2.625 C-6.22007812 2.55539063 -5.31515625 2.48578125 -4.3828125 2.4140625 C-1.82058097 2.20431868 -1.82058097 2.20431868 0 0 Z " fill="#539FB4" transform="translate(191,17)"/>
<path d="M0 0 C0.33 0 0.66 0 1 0 C0.53199289 4.05606165 0.12046792 7.46588679 -2 11 C-2 8.36 -2 5.72 -2 3 C-1.34 3 -0.68 3 0 3 C0 2.01 0 1.02 0 0 Z " fill="#85CADF" transform="translate(141,264)"/>
</svg>
